<?xml version="1.0" encoding="UTF-8" standalone="no"?>
<!-- Created with Inkscape (http://www.inkscape.org/) -->

<svg
   width="231.59656"
   height="231.59656"
   viewBox="0 0 231.59656 231.59656"
   version="1.1"
   id="SVGRoot"
   sodipodi:docname="VBmar_logo.svg"
   xmlns:inkscape="http://www.inkscape.org/namespaces/inkscape"
   xmlns:sodipodi="http://sodipodi.sourceforge.net/DTD/sodipodi-0.dtd"
   xmlns="http://www.w3.org/2000/svg"
   xmlns:svg="http://www.w3.org/2000/svg">
  <sodipodi:namedview
     id="namedview324"
     pagecolor="#ffffff"
     bordercolor="#000000"
     borderopacity="0.25"
     inkscape:showpageshadow="2"
     inkscape:pageopacity="0.0"
     inkscape:pagecheckerboard="0"
     inkscape:deskcolor="#d1d1d1"
     inkscape:document-units="px"
     showgrid="true"
     inkscape:zoom="0.25"
     inkscape:cx="483.5"
     inkscape:cy="483.5"
     inkscape:window-width="1920"
     inkscape:window-height="1009"
     inkscape:window-x="-8"
     inkscape:window-y="-8"
     inkscape:window-maximized="0"
     inkscape:current-layer="layer1">
    <inkscape:grid
       type="xygrid"
       id="grid447" />
  </sodipodi:namedview>
  <defs
     id="defs319" />
  <g
     inkscape:label="Layer 1"
     inkscape:groupmode="layer"
     id="layer1"
     transform="translate(-14.68559,-15.121716)">
    <circle
       style="font-size:51.5807px;fill:#000000;fill-opacity:1;stroke:#000000;stroke-width:1.36144;stroke-linecap:round;stroke-linejoin:round;stroke-miterlimit:0;stroke-dasharray:none;stroke-opacity:0"
       id="path1177"
       cx="130.48387"
       cy="130.92"
       r="115.11756" />
    <path
       style="color:#000000;font-size:51.5807px;fill:#ffffff;fill-opacity:1;stroke:#000000;stroke-width:2.64097;stroke-linecap:butt;stroke-linejoin:miter;stroke-miterlimit:0;stroke-opacity:0.0140845;-inkscape-stroke:none"
       d="m 54.68607,58.346725 a 1.3206154,1.3206154 0 0 0 -1.237953,1.774412 l 36.050228,99.041403 a 1.3206154,1.3206154 0 0 0 1.237952,0.86658 h 17.563473 a 1.3206154,1.3206154 0 0 0 1.23795,-0.86658 L 145.58795,60.121137 A 1.3206154,1.3206154 0 0 0 144.35,58.346725 h -13.43695 a 1.3206154,1.3206154 0 0 0 -1.24314,0.876907 L 99.850728,142.87314 70.031531,59.223632 A 1.3206154,1.3206154 0 0 0 68.78842,58.346725 Z m 1.88788,2.640967 h 11.280849 l 30.752818,86.259548 a 1.3206154,1.3206154 0 0 0 2.486223,0 L 131.84666,60.987692 H 142.4621 L 107.37128,157.38815 H 91.664764 Z"
       id="path906" />
    <path
       style="color:#000000;font-size:51.5807px;fill:#ffffff;fill-opacity:1;stroke:#000000;stroke-width:2.64097;stroke-linecap:butt;stroke-linejoin:miter;stroke-miterlimit:0;stroke-opacity:0.0140845;-inkscape-stroke:none"
       d="m 144.24224,109.18816 a 1.3206154,1.3206154 0 0 0 -1.32048,1.32048 v 99.04143 a 1.3206154,1.3206154 0 0 0 1.32048,1.32048 h 35.12174 c 6.95068,0 12.70648,-0.61991 17.31072,-1.90851 4.64155,-1.28679 8.90795,-3.45809 12.76123,-6.48379 l 0.0105,-0.006 c 3.30498,-2.56237 5.94014,-5.83511 7.88162,-9.76437 1.96356,-3.97384 2.92984,-8.53397 2.92984,-13.62263 0,-7.11759 -2.02932,-13.15233 -6.10209,-17.88325 l -0.006,-0.006 c -3.59628,-4.21393 -8.56684,-6.90753 -14.42731,-8.50577 3.27567,-1.93279 6.123,-4.24443 8.2427,-7.14917 a 1.3206154,1.3206154 0 0 0 0.006,-0.006 c 2.56691,-3.56515 3.84282,-7.8882 3.84282,-12.81283 0,-4.34152 -0.85847,-8.14813 -2.62549,-11.34789 v 0.0105 c -1.78059,-3.27245 -4.64198,-5.92113 -8.45933,-7.9229 a 1.3206154,1.3206154 0 0 0 -0.0106,-0.006 C 197.31328,111.70727 193.73403,110.55318 190,110 c -3.71883,-0.55096 -9.16316,-0.815 -16.42352,-0.815 z m 1.32048,2.64097 h 28.01385 c 7.19554,0 12.57187,0.27073 16.03664,0.78405 3.4496,0.51105 6.74098,1.57663 9.89846,3.19805 3.44911,1.81078 5.86145,4.08436 7.36067,6.83968 a 1.3206154,1.3206154 0 0 0 0.006,0.006 c 1.51436,2.74226 2.29537,6.07367 2.29537,10.06869 0,4.47617 -1.12029,8.1842 -3.34246,11.27054 -2.26328,3.09946 -5.27493,5.59309 -9.09895,7.5051 a 1.3206154,1.3206154 0 0 0 -0.73247,1.18119 v 0.53132 a 1.3206154,1.3206154 0 0 0 1.05741,1.29468 c 6.46533,1.32732 11.43676,4.12146 15.09274,8.40775 a 1.3206154,1.3206154 0 0 0 0.006,0.006 c 3.63985,4.22557 5.46246,9.53944 5.46246,16.1656 0,4.75556 -0.89515,8.88722 -2.65644,12.45173 -1.78159,3.60566 -4.15118,6.54215 -7.13887,8.85654 a 1.3206154,1.3206154 0 0 0 -0.006,0.006 c -3.59401,2.82388 -7.53098,4.82412 -11.84308,6.01955 a 1.3206154,1.3206154 0 0 0 -0.006,0 c -4.26375,1.19385 -9.81034,1.81052 -16.60404,1.81052 h -33.80126 z m 11.84823,8.60379 a 1.3206154,1.3206154 0 0 0 -1.32049,1.32048 v 28.60186 a 1.3206154,1.3206154 0 0 0 1.32049,1.32048 h 17.03217 c 4.16655,0 7.49728,-0.20071 10.05321,-0.61896 a 1.3206154,1.3206154 0 0 0 0.0264,-0.006 c 2.60241,-0.47318 5.03255,-1.42195 7.25751,-2.84216 2.27635,-1.45295 3.95173,-3.39094 4.90021,-5.73068 v -0.006 c 0.96704,-2.32281 1.42881,-4.99985 1.42881,-8.01576 0,-2.54124 -0.42205,-4.76541 -1.33081,-6.63334 -0.9194,-1.88996 -2.4196,-3.42491 -4.3844,-4.55464 -2.28251,-1.31124 -5.00511,-2.08829 -8.12406,-2.3676 -3.03476,-0.3162 -6.74408,-0.46938 -11.15705,-0.46938 z m 1.32048,2.64096 h 14.38091 c 4.35886,0 8.00015,0.15556 10.90429,0.45909 a 1.3206154,1.3206154 0 0 0 0.0159,0 c 2.82309,0.25274 5.16027,0.93865 7.04602,2.02197 1.58268,0.91003 2.65008,2.03352 3.32701,3.42502 0.68763,1.41345 1.06257,3.23011 1.06257,5.47792 0,2.74689 -0.42216,5.07163 -1.22763,7.00477 a 1.3206154,1.3206154 0 0 0 -0.006,0.0159 c -0.7373,1.82388 -1.98521,3.29762 -3.87374,4.50303 -1.94003,1.23833 -4.03236,2.05639 -6.30325,2.47076 -2.32101,0.37876 -5.53998,0.58286 -9.61478,0.58286 h -15.71132 z m -1.32048,37.06637 a 1.3206154,1.3206154 0 0 0 -1.32049,1.32049 v 36.84975 a 1.3206154,1.3206154 0 0 0 1.32049,1.32048 h 17.42934 c 5.80865,0 10.58595,-0.28926 14.37059,-0.88206 a 1.3206154,1.3206154 0 0 0 0.0159,0 c 3.8181,-0.64399 7.01892,-1.80679 9.56835,-3.53847 a 1.3206154,1.3206154 0 0 0 0.0159,-0.006 c 2.62174,-1.82586 4.6028,-3.95931 5.86994,-6.3961 1.28425,-2.46973 1.87757,-5.54381 1.87757,-9.19181 0,-4.12294 -0.60497,-7.49036 -1.93947,-10.10994 -1.35336,-2.6566 -3.77059,-4.82758 -7.08727,-6.55598 -2.31362,-1.20502 -5.07203,-1.94637 -8.25818,-2.2696 -3.08512,-0.36197 -6.79903,-0.54161 -11.17253,-0.54161 z m 1.32048,2.64097 h 19.36882 c 4.30969,0 7.94141,0.18011 10.88366,0.52613 a 1.3206154,1.3206154 0 0 0 0.0264,0 c 2.93323,0.29758 5.36057,0.97373 7.3039,1.98587 2.98007,1.55302 4.91133,3.37228 5.95251,5.41607 1.06002,2.08082 1.6506,5.04924 1.6506,8.90809 0,3.35828 -0.5568,6.00989 -1.5784,7.97448 -1.03669,1.99366 -2.69178,3.80626 -5.02917,5.43669 -2.14713,1.45842 -4.9718,2.5122 -8.50579,3.11035 -3.57637,0.56017 -8.24245,0.8511 -13.96308,0.8511 h -16.10886 z"
       id="path908" />
    <path
       style="font-size:51.5807px;fill:#ffffff;fill-opacity:1;stroke:#000000;stroke-width:1.78802;stroke-linecap:round;stroke-linejoin:round;stroke-miterlimit:0;stroke-dasharray:none;stroke-opacity:0.0140845"
       d="M 92.448951,154.94185 C 92.227005,154.34924 84.687248,133.64021 75.693967,108.92174 66.700694,84.203298 59.198658,63.60658 59.022788,63.151225 58.73379,62.403012 59.086228,62.32336 62.68503,62.32336 h 3.982013 l 15.382487,43.16856 c 14.271944,40.052 15.477747,43.215 16.70189,43.81176 2.86179,1.39509 2.38963,2.49027 18.93952,-43.93003 l 15.26405,-42.813764 3.64793,-0.138916 c 3.42798,-0.130463 3.63036,-0.08345 3.35604,0.780855 -0.16057,0.505851 -7.80329,21.537613 -16.9839,46.737265 l -16.69201,45.81755 -6.715267,0.13126 c -6.610126,0.12914 -6.721591,0.11435 -7.118832,-0.94615 z"
       id="path1025" />
    <path
       style="font-size:51.5807px;fill:#ffffff;fill-opacity:1;stroke:#000000;stroke-width:1.78802;stroke-linecap:round;stroke-linejoin:round;stroke-miterlimit:0;stroke-dasharray:none;stroke-opacity:0.0140845"
       d="m 147.27024,159.96885 v -46.64398 l 20.69728,0.21973 c 22.59662,0.2398 23.78922,0.36714 29.64406,3.16472 5.86543,2.80264 8.89066,6.79116 9.74852,12.85266 1.15326,8.14854 -1.83827,14.42155 -9.18967,19.27015 -2.99826,1.97751 -3.37066,2.39105 -3.49682,3.88344 -0.17985,2.1268 0.69333,2.91922 4.37872,3.97389 8.13305,2.32743 14.18419,8.15367 16.15466,15.55421 0.84546,3.17534 0.83064,10.74113 -0.0272,13.96477 -2.88464,10.83813 -12.62646,18.27874 -26.04175,19.89028 -2.38355,0.28634 -12.53537,0.51206 -23.06267,0.5128 l -18.80495,10e-4 z m 33.35219,40.96929 c 4.68349,-0.24402 9.79276,-0.77676 11.35391,-1.18365 7.72169,-2.01242 13.02105,-6.55092 15.12843,-12.95632 1.09297,-3.32215 1.13947,-11.142 0.0877,-14.75981 -1.64859,-5.67097 -6.08433,-9.80049 -12.79398,-11.91073 -3.23785,-1.01833 -4.05509,-1.05938 -21.09413,-1.05938 h -17.72577 l -0.59911,1.18271 c -0.74872,1.47804 -0.88272,37.07558 -0.14684,39.01104 0.25644,0.6744 0.94829,1.41986 1.53752,1.65657 1.40906,0.56609 13.5794,0.57592 24.25226,0.0185 z m 3.29687,-48.27859 c 5.79392,-0.83732 11.00225,-3.88689 13.28185,-7.77674 1.67416,-2.85671 2.7376,-8.26657 2.36533,-12.03256 -0.57959,-5.86337 -3.00012,-9.37726 -8.04164,-11.674 -3.76538,-1.71541 -7.59246,-2.07588 -22.08014,-2.07968 -12.0234,-0.003 -13.61601,0.0842 -14.19243,0.77874 -0.52132,0.62815 -0.64928,3.85195 -0.64928,16.35942 0,14.87357 0.0414,15.60739 0.91832,16.24854 0.73722,0.5391 3.3025,0.66965 13.00971,0.66211 6.65025,-0.006 13.575,-0.22368 15.38828,-0.48583 z"
       id="path1027" />
  </g>
</svg>
