<?xml version="1.0" encoding="UTF-8" standalone="no"?>
<!-- Created with Inkscape (http://www.inkscape.org/) -->

<svg
   width="281.1698"
   height="123.19012"
   viewBox="0 0 281.1698 123.19012"
   version="1.1"
   id="SVGRoot"
   sodipodi:docname="C:\Users\VBmar\AppData\Local\Temp\ink_ext_XXXXXX.svgWE8LU2"
   inkscape:export-filename="creative.svg"
   inkscape:export-xdpi="96"
   inkscape:export-ydpi="96"
   xmlns:inkscape="http://www.inkscape.org/namespaces/inkscape"
   xmlns:sodipodi="http://sodipodi.sourceforge.net/DTD/sodipodi-0.dtd"
   xmlns="http://www.w3.org/2000/svg"
   xmlns:svg="http://www.w3.org/2000/svg">
  <sodipodi:namedview
     id="namedview1442"
     pagecolor="#ffffff"
     bordercolor="#000000"
     borderopacity="0.25"
     inkscape:showpageshadow="2"
     inkscape:pageopacity="0.0"
     inkscape:pagecheckerboard="0"
     inkscape:deskcolor="#d1d1d1"
     inkscape:document-units="px"
     showgrid="true"
     inkscape:zoom="0.25"
     inkscape:cx="483.5"
     inkscape:cy="483.5"
     inkscape:window-width="1920"
     inkscape:window-height="1009"
     inkscape:window-x="-8"
     inkscape:window-y="-8"
     inkscape:window-maximized="0"
     inkscape:current-layer="layer1">
    <inkscape:grid
       type="xygrid"
       id="grid1565" />
  </sodipodi:namedview>
  <defs
     id="defs1437" />
  <g
     inkscape:label="Layer 1"
     inkscape:groupmode="layer"
     id="layer1"
     transform="translate(10.584912,-58.404934)">
    <path
       id="path715-6"
       style="fill:none;stroke:#73ffff;stroke-width:10.2426;stroke-linecap:round;stroke-linejoin:round;stroke-miterlimit:0;stroke-dasharray:none;stroke-opacity:1"
       d="m 57.798445,68.718466 c -13.106426,-0.05998 -26.235814,4.88021 -36.281513,14.834214 -20.0913955,19.90803 -20.2404215,52.334 -0.332396,72.42539 19.908016,20.09142 52.398592,20.30432 72.4254,0.33137 l 36.389494,-36.29212 c 0,0 -0.0105,0.24543 -36.057094,-36.13328 C 83.98832,73.838327 70.904871,68.77857 57.798445,68.718466 Z m 72.200985,51.298854 c 0,0 0.0114,-0.2454 36.05816,36.13331 19.90803,20.09143 52.334,20.24042 72.42539,0.33241 20.0914,-19.90803 20.24041,-52.334 0.33239,-72.42539 -19.90801,-20.091402 -52.3986,-20.305385 -72.42539,-0.33241 z" />
    <path
       id="path715-2"
       style="fill:none;stroke:#7744ff;stroke-width:11.1851;stroke-linecap:round;stroke-linejoin:round;stroke-miterlimit:0;stroke-dasharray:none;stroke-opacity:1"
       d="m 51.15467,63.998071 c -14.312449,-0.06552 -28.649974,5.329243 -39.620055,16.199189 -21.940166,21.73992 -22.102903,57.14971 -0.362989,79.08985 21.739915,21.94017 57.220201,22.17268 79.08983,0.36182 l 39.737974,-39.63161 c 0,0 -0.0114,0.26801 -39.374985,-39.45821 C 79.75448,69.589003 65.467121,64.063681 51.15467,63.998071 Z m 78.84476,56.019249 c 0,0 0.0125,-0.26798 39.37613,39.45822 21.73992,21.94019 57.14967,22.10288 79.08983,0.36299 21.94017,-21.7399 22.10288,-57.14967 0.36298,-79.08983 -21.73989,-21.940167 -57.22021,-22.173819 -79.08982,-0.36299 z" />
    <path
       id="path715"
       style="fill:none;stroke:#7300ff;stroke-width:10.7416;stroke-linecap:round;stroke-linejoin:round;stroke-miterlimit:0;stroke-dasharray:none;stroke-opacity:1"
       d="m 54.280541,66.218995 c -13.74502,-0.06301 -27.51412,5.117983 -38.049279,15.556985 -21.0703285,20.87803 -21.2266145,54.88393 -0.348603,75.95426 20.878018,21.07032 54.951656,21.29361 75.954243,0.34747 l 38.162528,-38.06039 c 0,0 -0.011,0.25738 -37.81393,-37.89385 C 81.746486,71.588295 68.025562,66.282015 54.280541,66.218995 Z m 75.718889,53.798325 c 0,0 0.012,-0.25734 37.81503,37.89387 20.87803,21.07035 54.88392,21.22659 75.95424,0.34859 21.07033,-20.87801 21.2266,-54.88392 0.34859,-75.95424 -20.878,-21.070325 -54.95166,-21.294728 -75.95424,-0.3486 z" />
  </g>
</svg>
