<?xml version="1.0" encoding="UTF-8" standalone="no"?>
<!-- Created with Inkscape (http://www.inkscape.org/) -->

<svg
   width="278.94846"
   height="118.80879"
   viewBox="0 0 278.94846 118.8088"
   version="1.1"
   id="SVGRoot"
   sodipodi:docname="creative2.svg"
   inkscape:export-filename="creative2.svg"
   inkscape:export-xdpi="96"
   inkscape:export-ydpi="96"
   xmlns:inkscape="http://www.inkscape.org/namespaces/inkscape"
   xmlns:sodipodi="http://sodipodi.sourceforge.net/DTD/sodipodi-0.dtd"
   xmlns="http://www.w3.org/2000/svg"
   xmlns:svg="http://www.w3.org/2000/svg">
  <sodipodi:namedview
     id="namedview1442"
     pagecolor="#ffffff"
     bordercolor="#000000"
     borderopacity="0.25"
     inkscape:showpageshadow="2"
     inkscape:pageopacity="0.0"
     inkscape:pagecheckerboard="0"
     inkscape:deskcolor="#d1d1d1"
     inkscape:document-units="px"
     showgrid="true"
     inkscape:zoom="0.25"
     inkscape:cx="483.5"
     inkscape:cy="483.5"
     inkscape:window-width="1920"
     inkscape:window-height="1009"
     inkscape:window-x="-8"
     inkscape:window-y="-8"
     inkscape:window-maximized="0"
     inkscape:current-layer="layer1">
    <inkscape:grid
       type="xygrid"
       id="grid1565" />
  </sodipodi:namedview>
  <defs
     id="defs1437" />
  <g
     inkscape:label="Layer 1"
     inkscape:groupmode="layer"
     id="layer1"
     transform="translate(9.5849146,-60.595602)">
    <path
       id="path715-2"
       style="fill:none;stroke:#7744ff;stroke-width:10.7873;stroke-linecap:round;stroke-linejoin:round;stroke-miterlimit:0;stroke-dasharray:none;stroke-opacity:1"
       d="M 49.958859,65.989818 C 36.155442,65.926629 22.327841,71.129523 11.747919,81.612872 -9.4119302,102.5796 -9.5688794,136.73001 11.39784,157.88984 c 20.966719,21.15985 55.185124,21.38409 76.276945,0.34895 L 125.99945,120.0167 c 0,0 -0.011,0.25848 -37.974586,-38.054847 C 77.541497,71.381905 63.762278,66.053095 49.958859,65.989818 Z M 125.99945,120.0167 c 0,0 0.0121,-0.25845 37.97569,38.05487 20.96673,21.15987 55.1171,21.31677 76.27695,0.35008 21.15985,-20.96671 21.31677,-55.11711 0.35007,-76.27695 -20.9667,-21.15985 -55.18514,-21.385192 -76.27694,-0.35008 z" />
    <path
       id="path715"
       style="fill:none;stroke:#7300ff;stroke-width:10.7696;stroke-linecap:round;stroke-linejoin:round;stroke-miterlimit:0;stroke-dasharray:none;stroke-opacity:1"
       d="m 58.082945,66.078648 c -13.780888,-0.06318 -27.58592,5.131338 -38.148571,15.597582 -21.125313,20.93251 -21.282007,55.02715 -0.349513,76.15247 20.932501,21.1253 55.095057,21.34918 76.152449,0.34837 l 38.26212,-38.15971 c 0,0 -0.011,0.25806 -37.91261,-37.992734 C 85.620565,71.461959 71.863835,66.141832 58.082945,66.078648 Z m 75.916485,53.938712 c 0,0 0.012,-0.25801 37.91371,37.99276 20.93251,21.12534 55.02714,21.28198 76.15245,0.3495 21.12531,-20.93249 21.28199,-55.02714 0.3495,-76.152448 -20.93248,-21.12531 -55.09506,-21.350299 -76.15245,-0.34951 z" />
  </g>
</svg>
